HIERARCHY
ROOT hip
{
  OFFSET 2.61985 89.1892 -2.82841
  CHANNELS 6 Xposition Yposition Zposition Zrotation Xrotation Yrotation
  JOINT abdomen
  {
    OFFSET 0 7.2397 0
    CHANNELS 6 Xposition Yposition Zposition Zrotation Xrotation Yrotation
    JOINT chest
    {
      OFFSET 0 16.546 0
      CHANNELS 6 Xposition Yposition Zposition Zrotation Xrotation Yrotation
      JOINT neck
      {
        OFFSET 0 34.2149 0
        CHANNELS 6 Xposition Yposition Zposition Zrotation Xrotation Yrotation
        JOINT head
        {
          OFFSET 0 6.2923 0
          CHANNELS 6 Xposition Yposition Zposition Zrotation Xrotation Yrotation
          End Site
          {
            OFFSET 0 21.2161 0
          }
        }
      }
      JOINT lCollar
      {
        OFFSET 4.0639 26.6115 -1.1234
        CHANNELS 6 Xposition Yposition Zposition Zrotation Xrotation Yrotation
        JOINT lShldr
        {
          OFFSET 14.1772 0 0
          CHANNELS 6 Xposition Yposition Zposition Zrotation Xrotation Yrotation
          JOINT lForeArm
          {
            OFFSET 26.1234 0 0
            CHANNELS 6 Xposition Yposition Zposition Zrotation Xrotation Yrotation
            JOINT lHand
            {
              OFFSET 27.7188 0 0
              CHANNELS 6 Xposition Yposition Zposition Zrotation Xrotation Yrotation
              JOINT lThumb1
              {
                OFFSET 2.2979 -0.4685 1.8313
                CHANNELS 6 Xposition Yposition Zposition Zrotation Xrotation Yrotation
                JOINT lThumb2
                {
                  OFFSET 5.2953 0 0
                  CHANNELS 6 Xposition Yposition Zposition Zrotation Xrotation Yrotation
                  JOINT lThumb3
                  {
                    OFFSET 3.0181 0 0
                    CHANNELS 6 Xposition Yposition Zposition Zrotation Xrotation Yrotation
                    End Site
                    {
                      OFFSET 2.6294 0 0
                    }
                  }
                }
              }
              JOINT lIndex1
              {
                OFFSET 9.3793 0.2991 2.5924
                CHANNELS 6 Xposition Yposition Zposition Zrotation Xrotation Yrotation
                JOINT lIndex2
                {
                  OFFSET 4.3461 0 0
                  CHANNELS 6 Xposition Yposition Zposition Zrotation Xrotation Yrotation
                  JOINT lIndex3
                  {
                    OFFSET 2.1666 0 0
                    CHANNELS 6 Xposition Yposition Zposition Zrotation Xrotation Yrotation
                    End Site
                    {
                      OFFSET 2.2048 0 0
                    }
                  }
                }
              }
              JOINT lMid1
              {
                OFFSET 9.4769 0.8376 0.2947
                CHANNELS 6 Xposition Yposition Zposition Zrotation Xrotation Yrotation
                JOINT lMid2
                {
                  OFFSET 4.772 0 0
                  CHANNELS 6 Xposition Yposition Zposition Zrotation Xrotation Yrotation
                  JOINT lMid3
                  {
                    OFFSET 2.8722 0 0
                    CHANNELS 6 Xposition Yposition Zposition Zrotation Xrotation Yrotation
                    End Site
                    {
                      OFFSET 2.0959 0 0
                    }
                  }
                }
              }
              JOINT lRing1
              {
                OFFSET 8.6586 1.0176 -1.7016
                CHANNELS 6 Xposition Yposition Zposition Zrotation Xrotation Yrotation
                JOINT lRing2
                {
                  OFFSET 4.5461 0 0
                  CHANNELS 6 Xposition Yposition Zposition Zrotation Xrotation Yrotation
                  JOINT lRing3
                  {
                    OFFSET 2.506 0 0
                    CHANNELS 6 Xposition Yposition Zposition Zrotation Xrotation Yrotation
                    End Site
                    {
                      OFFSET 2.2023 0 0
                    }
                  }
                }
              }
              JOINT lPinky1
              {
                OFFSET 7.6901 0.6618 -3.9096
                CHANNELS 6 Xposition Yposition Zposition Zrotation Xrotation Yrotation
                JOINT lPinky2
                {
                  OFFSET 3.2119 0 0
                  CHANNELS 6 Xposition Yposition Zposition Zrotation Xrotation Yrotation
                  JOINT lPinky3
                  {
                    OFFSET 1.924 0 0
                    CHANNELS 6 Xposition Yposition Zposition Zrotation Xrotation Yrotation
                    End Site
                    {
                      OFFSET 1.7829 0 0
                    }
                  }
                }
              }
            }
          }
        }
      }
      JOINT rCollar
      {
        OFFSET -4.0677 26.6109 -1.1234
        CHANNELS 6 Xposition Yposition Zposition Zrotation Xrotation Yrotation
        JOINT rShldr
        {
          OFFSET -14.1772 0 0
          CHANNELS 6 Xposition Yposition Zposition Zrotation Xrotation Yrotation
          JOINT rForeArm
          {
            OFFSET -26.1234 0 0
            CHANNELS 6 Xposition Yposition Zposition Zrotation Xrotation Yrotation
            JOINT rHand
            {
              OFFSET -27.7188 0 0
              CHANNELS 6 Xposition Yposition Zposition Zrotation Xrotation Yrotation
              JOINT rThumb1
              {
                OFFSET -2.2979 -0.4684 1.8313
                CHANNELS 6 Xposition Yposition Zposition Zrotation Xrotation Yrotation
                JOINT rThumb2
                {
                  OFFSET -5.2953 0 0
                  CHANNELS 6 Xposition Yposition Zposition Zrotation Xrotation Yrotation
                  JOINT rThumb3
                  {
                    OFFSET -3.0181 0 0
                    CHANNELS 6 Xposition Yposition Zposition Zrotation Xrotation Yrotation
                    End Site
                    {
                      OFFSET -2.6294 0 0
                    }
                  }
                }
              }
              JOINT rIndex1
              {
                OFFSET -9.3793 0.2991 2.5924
                CHANNELS 6 Xposition Yposition Zposition Zrotation Xrotation Yrotation
                JOINT rIndex2
                {
                  OFFSET -4.3461 0 0
                  CHANNELS 6 Xposition Yposition Zposition Zrotation Xrotation Yrotation
                  JOINT rIndex3
                  {
                    OFFSET -2.1666 0 0
                    CHANNELS 6 Xposition Yposition Zposition Zrotation Xrotation Yrotation
                    End Site
                    {
                      OFFSET -2.2048 0 0
                    }
                  }
                }
              }
              JOINT rMid1
              {
                OFFSET -9.4769 0.8376 0.2947
                CHANNELS 6 Xposition Yposition Zposition Zrotation Xrotation Yrotation
                JOINT rMid2
                {
                  OFFSET -4.772 0 0
                  CHANNELS 6 Xposition Yposition Zposition Zrotation Xrotation Yrotation
                  JOINT rMid3
                  {
                    OFFSET -2.8722 0 0
                    CHANNELS 6 Xposition Yposition Zposition Zrotation Xrotation Yrotation
                    End Site
                    {
                      OFFSET -2.0959 0 0
                    }
                  }
                }
              }
              JOINT rRing1
              {
                OFFSET -8.6586 1.0176 -1.7016
                CHANNELS 6 Xposition Yposition Zposition Zrotation Xrotation Yrotation
                JOINT rRing2
                {
                  OFFSET -4.5461 0 0
                  CHANNELS 6 Xposition Yposition Zposition Zrotation Xrotation Yrotation
                  JOINT rRing3
                  {
                    OFFSET -2.506 0 0
                    CHANNELS 6 Xposition Yposition Zposition Zrotation Xrotation Yrotation
                    End Site
                    {
                      OFFSET -2.2023 0 0
                    }
                  }
                }
              }
              JOINT rPinky1
              {
                OFFSET -7.6901 0.6618 -3.9096
                CHANNELS 6 Xposition Yposition Zposition Zrotation Xrotation Yrotation
                JOINT rPinky2
                {
                  OFFSET -3.2119 0 0
                  CHANNELS 6 Xposition Yposition Zposition Zrotation Xrotation Yrotation
                  JOINT rPinky3
                  {
                    OFFSET -1.924 0 0
                    CHANNELS 6 Xposition Yposition Zposition Zrotation Xrotation Yrotation
                    End Site
                    {
                      OFFSET -1.7829 0 0
                    }
                  }
                }
              }
            }
          }
        }
      }
    }
  }
  JOINT lThigh
  {
    OFFSET 8.7379 -0.0029 0.0005
    CHANNELS 6 Xposition Yposition Zposition Zrotation Xrotation Yrotation
    JOINT lShin
    {
      OFFSET 0 -46.6676 0
      CHANNELS 6 Xposition Yposition Zposition Zrotation Xrotation Yrotation
      JOINT lFoot
      {
        OFFSET 0 -40.1476 0
        CHANNELS 6 Xposition Yposition Zposition Zrotation Xrotation Yrotation
        JOINT lToes
        {
          OFFSET 0 -8.8846 14.2294
          CHANNELS 6 Xposition Yposition Zposition Zrotation Xrotation Yrotation
          End Site
          {
            OFFSET 0 0 6.296
          }
        }
      }
    }
  }
  JOINT rThigh
  {
    OFFSET -8.7379 0.0029 -0.0005
    CHANNELS 6 Xposition Yposition Zposition Zrotation Xrotation Yrotation
    JOINT rShin
    {
      OFFSET 0 -46.6676 0
      CHANNELS 6 Xposition Yposition Zposition Zrotation Xrotation Yrotation
      JOINT rFoot
      {
        OFFSET 0 -40.1476 0
        CHANNELS 6 Xposition Yposition Zposition Zrotation Xrotation Yrotation
        JOINT rToes
        {
          OFFSET 0 -8.8846 14.2294
          CHANNELS 6 Xposition Yposition Zposition Zrotation Xrotation Yrotation
          End Site
          {
            OFFSET 0 0 6.296
          }
        }
      }
    }
  }
}
MOTION
Frames:	4
Frame Time:	0.0333333
0.776818 92.0276 0.723403 -0.677901 -0.136161 39.7181 -1.11022e-16 7.2397 -1.11022e-16 0.98493 -0.525435 -2.15515 0 16.546 0 1.75412 0.779942 -4.33969 0 34.2149 -4.44089e-16 -0.0444788 27.6275 -5.44826 0 6.2923 0 -6.82306 -24.8513 -29.3434 4.0639 26.6115 -1.1234 -6.18432 -2.83816 0.789488 14.1772 0 -2.66454e-15 -68.3131 4.39535 9.06412 26.1234 0 0 -0.439448 0.120562 -30.6833 27.7188 0 7.10543e-15 -42.6744 28.1069 22.8079 2.2979 -0.4685 1.8313 -18.6472 62.4613 -22.1993 5.2953 0 -7.10543e-15 -78.4484 -17.8615 23.6396 3.0181 0 0 -26.0205 -3.27832 12.7531 9.3793 0.2991 2.5924 -86.7234 -11.6336 11.7376 4.3461 -1.42109e-14 -3.55271e-15 -101.313 -15.3687 12.8432 2.1666 -1.77636e-15 8.88178e-16 -52.8682 -5.06579 9.70679 9.4769 0.8376 0.2947 -86.1207 -14.3678 11.8693 4.772 -1.42109e-14 -7.10543e-15 -99.7084 -18.7732 15.9476 2.8722 0 3.55271e-15 -46.0735 -4.79904 13.0041 8.6586 1.0176 -1.7016 -87.5253 -7.80638 11.6022 4.5461 1.42109e-14 0 -102.907 -10.9792 8.75753 2.506 3.55271e-15 0 -44.7424 -2.53775 7.36489 7.6901 0.6618 -3.9096 -83.6698 -18.5361 16.4544 3.2119 1.42109e-14 0 -97.5288 -20.0782 21.9503 1.924 0 1.77636e-15 -44.1134 -5.97674 16.4565 -4.0677 26.6109 -1.1234 3.60437 -5.76112 -14.1045 -14.1772 0 0 57.3277 35.6454 5.66567 -26.1234 0 3.55271e-15 0.277807 0.0460473 18.8234 -27.7188 0 -8.88178e-16 24.0486 -70.0589 11.3946 -2.2979 -0.4684 1.8313 -6.82629 85.111 59.48 -5.2953 0 1.42109e-14 77.43 -43.5181 -15.7894 -3.0181 -2.84217e-14 4.44089e-15 21.0874 -14.4824 -19.0303 -9.3793 0.2991 2.5924 99.0589 -14.2344 -11.8431 -4.3461 1.42109e-14 0 91.1127 -13.1587 -13.1719 -2.1666 -3.55271e-15 0 47.8539 -4.223 -9.03701 -9.4769 0.8376 0.2947 98.4591 -16.9706 -12.0045 -4.772 0 -3.55271e-15 89.6004 -16.0621 -16.2604 -2.8722 1.77636e-15 0 41.1398 -3.85984 -12.0494 -8.6586 1.0176 -1.7016 99.8738 -10.4084 -11.6691 -4.5461 1.42109e-14 0 92.6083 -9.46618 -9.04647 -2.506 2.66454e-15 7.10543e-15 39.6377 -2.01539 -6.82333 -7.6901 0.6618 -3.9096 97.4276 -21.4863 -12.3445 -3.2119 0 0 86.4696 -20.3634 -21.6288 -1.924 1.77636e-15 0 39.3557 -4.79855 -15.1654 8.7379 -0.0029 0.0005 20.3992 6.87814 29.8259 -7.10543e-15 -46.6676 0 1.15492 16.8923 6.58282 0 -40.1476 -1.77636e-15 -24.7683 -7.31296 5.79391 0 -8.8846 14.2294 0.0001 -4.53478e-16 -1.98785e-16 -8.7379 0.0029 -0.0005 -21.4914 -7.36251 -28.2424 0 -46.6676 7.10543e-15 -1.37836 17.1768 -3.49717 3.55271e-15 -40.1476 0 17.0714 0.902716 -8.01219 0 -8.8846 14.2294 1.16087e-16 0 -1.98785e-16 
0.772214 92.0282 0.75451 -0.803465 -0.118794 39.6916 2.22045e-16 7.2397 0 1.05107 -0.624283 -2.15252 1.11022e-16 16.546 -2.22045e-16 1.88496 0.57975 -4.34155 -1.77636e-15 34.2149 3.33067e-16 -0.114507 27.6209 -5.4076 0 6.2923 0 -6.9639 -24.8758 -29.2931 4.0639 26.6115 -1.1234 -6.20223 -2.85591 0.948838 14.1772 0 2.66454e-15 -68.3809 4.14074 9.28407 26.1234 0 0 -0.442029 0.122095 -30.8808 27.7188 0 0 -43.1677 28.226 23.283 2.2979 -0.4685 1.8313 -18.6472 62.4613 -22.1993 5.2953 1.77636e-15 0 -78.4484 -17.8615 23.6396 3.0181 -1.42109e-14 7.10543e-15 -26.0205 -3.27832 12.7531 9.3793 0.2991 2.5924 -86.7234 -11.6336 11.7376 4.3461 -1.42109e-14 0 -101.313 -15.3687 12.8432 2.1666 -3.55271e-15 0 -52.8682 -5.06579 9.70679 9.4769 0.8376 0.2947 -86.1207 -14.3678 11.8693 4.772 0 -3.55271e-15 -99.7084 -18.7732 15.9476 2.8722 3.55271e-15 -1.77636e-15 -46.0735 -4.79904 13.0041 8.6586 1.0176 -1.7016 -87.5253 -7.80638 11.6022 4.5461 1.42109e-14 -3.55271e-15 -102.907 -10.9792 8.75753 2.506 -1.77636e-15 3.55271e-15 -44.7424 -2.53775 7.36489 7.6901 0.6618 -3.9096 -83.6698 -18.5361 16.4544 3.2119 0 0 -97.5288 -20.0782 21.9503 1.924 0 0 -44.1134 -5.97674 16.4565 -4.0677 26.6109 -1.1234 3.63398 -5.77458 -14.1483 -14.1772 -2.84217e-14 0 57.5562 35.9608 5.50865 -26.1234 0 0 0.275195 0.045162 18.6382 -27.7188 0 -2.66454e-15 24.0533 -70.0639 11.3982 -2.2979 -0.4684 1.8313 -6.82629 85.111 59.48 -5.2953 0 -1.42109e-14 77.43 -43.5181 -15.7894 -3.0181 0 0 21.0874 -14.4824 -19.0303 -9.3793 0.2991 2.5924 99.0589 -14.2344 -11.8431 -4.3461 -1.42109e-14 0 91.1127 -13.1587 -13.1719 -2.1666 0 0 47.8539 -4.223 -9.03701 -9.4769 0.8376 0.2947 98.4591 -16.9706 -12.0045 -4.772 1.42109e-14 0 89.6004 -16.0621 -16.2604 -2.8722 0 0 41.1398 -3.85984 -12.0494 -8.6586 1.0176 -1.7016 99.8738 -10.4084 -11.6691 -4.5461 0 -7.10543e-15 92.6083 -9.46618 -9.04647 -2.506 4.44089e-15 0 39.6377 -2.01539 -6.82333 -7.6901 0.6618 -3.9096 97.4276 -21.4863 -12.3445 -3.2119 1.42109e-14 3.55271e-15 86.4696 -20.3634 -21.6288 -1.924 0 0 39.3557 -4.79855 -15.1654 8.7379 -0.0029 0.0005 20.4981 6.78855 29.9019 0 -46.6676 3.55271e-15 1.1586 16.9481 6.63301 7.10543e-15 -40.1476 -8.88178e-16 -24.7561 -7.32695 5.79647 0 -8.8846 14.2294 0.0001 5.12492e-16 5.96354e-16 -8.7379 0.0029 -0.0005 -21.4099 -7.47463 -28.2459 0 -46.6676 0 -1.38988 17.2202 -3.47472 0 -40.1476 0 17.1382 0.975381 -8.02123 3.55271e-15 -8.8846 14.2294 8.15328e-17 -2.48481e-17 3.97569e-16 
0.590817 91.9188 0.964443 -1.36298 0.378057 39.711 0 7.2397 -1.11022e-16 0.998875 -0.771009 -2.04518 1.11022e-16 16.546 1.11022e-16 1.84317 0.28826 -4.12732 0 34.2149 1.11022e-16 0.0852032 27.7823 -5.55142 4.44089e-16 6.2923 0 -6.6978 -24.846 -29.6069 4.0639 26.6115 -1.1234 -6.18365 -2.8384 0.788653 14.1772 -2.84217e-14 0 -68.289 4.51847 9.31149 26.1234 -7.10543e-15 0 -0.449166 0.126415 -31.4367 27.7188 -7.10543e-15 0 -43.1703 28.2989 22.9551 2.2979 -0.4685 1.8313 -18.6472 62.4613 -22.1993 5.2953 1.77636e-15 1.42109e-14 -78.4484 -17.8615 23.6396 3.0181 1.42109e-14 -3.55271e-15 -26.0205 -3.27832 12.7531 9.3793 0.2991 2.5924 -86.7234 -11.6336 11.7376 4.3461 0 0 -101.313 -15.3687 12.8432 2.1666 0 -8.88178e-16 -52.8682 -5.06579 9.70679 9.4769 0.8376 0.2947 -86.1207 -14.3678 11.8693 4.772 0 3.55271e-15 -99.7084 -18.7732 15.9476 2.8722 -3.55271e-15 -1.77636e-15 -46.0735 -4.79904 13.0041 8.6586 1.0176 -1.7016 -87.5253 -7.80638 11.6022 4.5461 -1.42109e-14 3.55271e-15 -102.907 -10.9792 8.75753 2.506 -1.77636e-15 -3.55271e-15 -44.7424 -2.53775 7.36489 7.6901 0.6618 -3.9096 -83.6698 -18.5361 16.4544 3.2119 1.42109e-14 0 -97.5288 -20.0782 21.9503 1.924 1.77636e-15 -1.77636e-15 -44.1134 -5.97674 16.4565 -4.0677 26.6109 -1.1234 3.47035 -5.70721 -13.9562 -14.1772 0 1.77636e-15 56.5817 34.6403 6.1826 -26.1234 1.42109e-14 0 0.288421 0.0497234 19.5679 -27.7188 0 0 23.8764 -70.0984 11.2218 -2.2979 -0.4684 1.8313 -6.82629 85.111 59.48 -5.2953 0 -7.10543e-15 77.43 -43.5181 -15.7894 -3.0181 -1.42109e-14 -3.55271e-15 21.0874 -14.4824 -19.0303 -9.3793 0.2991 2.5924 99.0589 -14.2344 -11.8431 -4.3461 -1.42109e-14 0 91.1127 -13.1587 -13.1719 -2.1666 -1.77636e-15 0 47.8539 -4.223 -9.03701 -9.4769 0.8376 0.2947 98.4591 -16.9706 -12.0045 -4.772 1.42109e-14 0 89.6004 -16.0621 -16.2604 -2.8722 -1.77636e-15 -7.10543e-15 41.1398 -3.85984 -12.0494 -8.6586 1.0176 -1.7016 99.8738 -10.4084 -11.6691 -4.5461 1.42109e-14 0 92.6083 -9.46618 -9.04647 -2.506 2.66454e-15 0 39.6377 -2.01539 -6.82333 -7.6901 0.6618 -3.9096 97.4276 -21.4863 -12.3445 -3.2119 -1.42109e-14 0 86.4696 -20.3634 -21.6288 -1.924 0 0 39.3557 -4.79855 -15.1654 8.7379 -0.0029 0.0005 20.8401 5.89879 29.9434 -7.10543e-15 -46.6676 1.77636e-15 1.20858 17.4185 6.84623 7.10543e-15 -40.1476 8.88178e-16 -24.9212 -7.37711 5.78024 0 -8.8846 14.2294 0.0001 -4.16205e-16 -0 -8.7379 0.0029 -0.0005 -21.3995 -8.81538 -28.087 0 -46.6676 0 -1.60129 18.7416 -3.78248 0 -40.1476 0 17.4796 0.205311 -7.91005 0 -8.8846 14.2294 6.21202e-18 4.96962e-17 -1.98785e-16 
0.175869 91.6476 1.39981 -1.43923 0.273541 41.363 0 7.2397 0 0.775588 -0.861867 -1.80639 0 16.546 0 1.49662 0.114895 -3.63693 4.44089e-16 34.2149 2.22045e-16 0.616117 28.183 -5.92368 4.44089e-16 6.2923 -1.42109e-14 -5.88839 -24.6745 -30.3504 4.0639 26.6115 -1.1234 -6.14202 -2.78703 0.328795 14.1772 0 0 -67.881 5.50348 8.68554 26.1234 7.10543e-15 3.55271e-15 -0.460574 0.133502 -32.3298 27.7188 0 0 -43.1972 28.389 22.1055 2.2979 -0.4685 1.8313 -18.6472 62.4613 -22.1993 5.2953 0 0 -78.4484 -17.8615 23.6396 3.0181 0 3.55271e-15 -26.0205 -3.27832 12.7531 9.3793 0.2991 2.5924 -86.7234 -11.6336 11.7376 4.3461 2.84217e-14 0 -101.313 -15.3687 12.8432 2.1666 3.55271e-15 2.66454e-15 -52.8682 -5.06579 9.70679 9.4769 0.8376 0.2947 -86.1207 -14.3678 11.8693 4.772 -1.42109e-14 0 -99.7084 -18.7732 15.9476 2.8722 -1.77636e-15 0 -46.0735 -4.79904 13.0041 8.6586 1.0176 -1.7016 -87.5253 -7.80638 11.6022 4.5461 -1.42109e-14 3.55271e-15 -102.907 -10.9792 8.75753 2.506 0 0 -44.7424 -2.53775 7.36489 7.6901 0.6618 -3.9096 -83.6698 -18.5361 16.4544 3.2119 1.42109e-14 0 -97.5288 -20.0782 21.9503 1.924 0 -1.77636e-15 -44.1134 -5.97674 16.4565 -4.0677 26.6109 -1.1234 2.99501 -5.52598 -13.4093 -14.1772 0 1.77636e-15 54.0812 30.9959 7.87827 -26.1234 -1.42109e-14 0 0.323768 0.0631881 22.0857 -27.7188 0 3.55271e-15 23.5077 -70.1606 10.8612 -2.2979 -0.4684 1.8313 -6.82629 85.111 59.48 -5.2953 -1.42109e-14 1.42109e-14 77.43 -43.5181 -15.7894 -3.0181 0 -3.55271e-15 21.0874 -14.4824 -19.0303 -9.3793 0.2991 2.5924 99.0589 -14.2344 -11.8431 -4.3461 1.42109e-14 0 91.1127 -13.1587 -13.1719 -2.1666 -3.55271e-15 0 47.8539 -4.223 -9.03701 -9.4769 0.8376 0.2947 98.4591 -16.9706 -12.0045 -4.772 0 -7.10543e-15 89.6004 -16.0621 -16.2604 -2.8722 0 0 41.1398 -3.85984 -12.0494 -8.6586 1.0176 -1.7016 99.8738 -10.4084 -11.6691 -4.5461 0 0 92.6083 -9.46618 -9.04647 -2.506 0 0 39.6377 -2.01539 -6.82333 -7.6901 0.6618 -3.9096 97.4276 -21.4863 -12.3445 -3.2119 0 0 86.4696 -20.3634 -21.6288 -1.924 1.77636e-15 0 39.3557 -4.79855 -15.1654 8.7379 -0.0029 0.0005 22.0384 4.64503 29.8824 -7.10543e-15 -46.6676 1.77636e-15 1.29078 18.9715 5.34931 0 -40.1476 0 -24.6628 -7.82054 5.64957 0 -8.8846 14.2294 0.0001 1.41323e-16 -1.98785e-16 -8.7379 0.0029 -0.0005 -21.6179 -9.52859 -28.3296 0 -46.6676 -7.10543e-15 -1.99773 22.1266 -3.88511 -7.10543e-15 -40.1476 -3.55271e-15 17.678 -1.92884 -8.02764 3.55271e-15 -8.8846 14.2294 2.64011e-17 9.93923e-17 1.98785e-16 
